<mxfile host="app.diagrams.net" modified="2021-10-25T22:05:20.217Z" agent="5.0 (Windows)" etag="52xwuYlkK23K2rMlzB4W" version="15.5.9" type="github">
  <diagram id="C5RBs43oDa-KdzZeNtuy" name="Page-1">
    <mxGraphModel dx="730" dy="306" grid="1" gridSize="10" guides="1" tooltips="1" connect="1" arrows="1" fold="1" page="1" pageScale="1" pageWidth="827" pageHeight="1169" math="0" shadow="0">
      <root>
        <mxCell id="WIyWlLk6GJQsqaUBKTNV-0" />
        <mxCell id="WIyWlLk6GJQsqaUBKTNV-1" parent="WIyWlLk6GJQsqaUBKTNV-0" />
        <mxCell id="uGZjI_AvlOsYNC_hHNxF-0" value="&amp;lt;&amp;lt;keyword&amp;gt;&amp;gt;&lt;br&gt;&lt;b&gt;main&lt;/b&gt;&lt;br&gt;{abstract}" style="swimlane;fontStyle=0;align=center;verticalAlign=top;childLayout=stackLayout;horizontal=1;startSize=55;horizontalStack=0;resizeParent=1;resizeParentMax=0;resizeLast=0;collapsible=0;marginBottom=0;html=1;" parent="WIyWlLk6GJQsqaUBKTNV-1" vertex="1">
          <mxGeometry x="1171" y="40" width="140" height="150" as="geometry" />
        </mxCell>
        <mxCell id="uGZjI_AvlOsYNC_hHNxF-1" value="attributes" style="text;html=1;strokeColor=none;fillColor=none;align=center;verticalAlign=middle;spacingLeft=4;spacingRight=4;overflow=hidden;rotatable=0;points=[[0,0.5],[1,0.5]];portConstraint=eastwest;" parent="uGZjI_AvlOsYNC_hHNxF-0" vertex="1">
          <mxGeometry y="55" width="140" height="20" as="geometry" />
        </mxCell>
        <mxCell id="uGZjI_AvlOsYNC_hHNxF-5" value="" style="line;strokeWidth=1;fillColor=none;align=left;verticalAlign=middle;spacingTop=-1;spacingLeft=3;spacingRight=3;rotatable=0;labelPosition=right;points=[];portConstraint=eastwest;" parent="uGZjI_AvlOsYNC_hHNxF-0" vertex="1">
          <mxGeometry y="75" width="140" height="8" as="geometry" />
        </mxCell>
        <mxCell id="uGZjI_AvlOsYNC_hHNxF-6" value="operations" style="text;html=1;strokeColor=none;fillColor=none;align=center;verticalAlign=middle;spacingLeft=4;spacingRight=4;overflow=hidden;rotatable=0;points=[[0,0.5],[1,0.5]];portConstraint=eastwest;" parent="uGZjI_AvlOsYNC_hHNxF-0" vertex="1">
          <mxGeometry y="83" width="140" height="20" as="geometry" />
        </mxCell>
        <mxCell id="uGZjI_AvlOsYNC_hHNxF-7" value="&lt;div&gt;initialize()&lt;br&gt;&lt;/div&gt;&lt;div&gt;mouseClick()&lt;br&gt;&lt;/div&gt;" style="text;html=1;strokeColor=none;fillColor=none;align=left;verticalAlign=middle;spacingLeft=4;spacingRight=4;overflow=hidden;rotatable=0;points=[[0,0.5],[1,0.5]];portConstraint=eastwest;" parent="uGZjI_AvlOsYNC_hHNxF-0" vertex="1">
          <mxGeometry y="103" width="140" height="47" as="geometry" />
        </mxCell>
        <mxCell id="uGZjI_AvlOsYNC_hHNxF-8" value="&amp;lt;&amp;lt;keyword&amp;gt;&amp;gt;&lt;br&gt;&lt;b&gt;GameState&lt;/b&gt;&lt;br&gt;{abstract}" style="swimlane;fontStyle=0;align=center;verticalAlign=top;childLayout=stackLayout;horizontal=1;startSize=55;horizontalStack=0;resizeParent=1;resizeParentMax=0;resizeLast=0;collapsible=0;marginBottom=0;html=1;" parent="WIyWlLk6GJQsqaUBKTNV-1" vertex="1">
          <mxGeometry x="898" y="54" width="140" height="198" as="geometry" />
        </mxCell>
        <mxCell id="uGZjI_AvlOsYNC_hHNxF-9" value="attributes" style="text;html=1;strokeColor=none;fillColor=none;align=center;verticalAlign=middle;spacingLeft=4;spacingRight=4;overflow=hidden;rotatable=0;points=[[0,0.5],[1,0.5]];portConstraint=eastwest;" parent="uGZjI_AvlOsYNC_hHNxF-8" vertex="1">
          <mxGeometry y="55" width="140" height="20" as="geometry" />
        </mxCell>
        <mxCell id="uGZjI_AvlOsYNC_hHNxF-10" value="&lt;div&gt;turn: string&lt;br&gt;&lt;/div&gt;&lt;div&gt;tileSelected: &lt;br&gt;&lt;/div&gt;&lt;div&gt;unitSelected&lt;/div&gt;&lt;div&gt;actionSelected&lt;/div&gt;&lt;div&gt;cardSelected&lt;br&gt;&lt;/div&gt;" style="text;html=1;strokeColor=none;fillColor=none;align=left;verticalAlign=middle;spacingLeft=4;spacingRight=4;overflow=hidden;rotatable=0;points=[[0,0.5],[1,0.5]];portConstraint=eastwest;" parent="uGZjI_AvlOsYNC_hHNxF-8" vertex="1">
          <mxGeometry y="75" width="140" height="75" as="geometry" />
        </mxCell>
        <mxCell id="uGZjI_AvlOsYNC_hHNxF-13" value="" style="line;strokeWidth=1;fillColor=none;align=left;verticalAlign=middle;spacingTop=-1;spacingLeft=3;spacingRight=3;rotatable=0;labelPosition=right;points=[];portConstraint=eastwest;" parent="uGZjI_AvlOsYNC_hHNxF-8" vertex="1">
          <mxGeometry y="150" width="140" height="8" as="geometry" />
        </mxCell>
        <mxCell id="uGZjI_AvlOsYNC_hHNxF-14" value="operations" style="text;html=1;strokeColor=none;fillColor=none;align=center;verticalAlign=middle;spacingLeft=4;spacingRight=4;overflow=hidden;rotatable=0;points=[[0,0.5],[1,0.5]];portConstraint=eastwest;" parent="uGZjI_AvlOsYNC_hHNxF-8" vertex="1">
          <mxGeometry y="158" width="140" height="20" as="geometry" />
        </mxCell>
        <mxCell id="uGZjI_AvlOsYNC_hHNxF-15" value="operation1" style="text;html=1;strokeColor=none;fillColor=none;align=left;verticalAlign=middle;spacingLeft=4;spacingRight=4;overflow=hidden;rotatable=0;points=[[0,0.5],[1,0.5]];portConstraint=eastwest;" parent="uGZjI_AvlOsYNC_hHNxF-8" vertex="1">
          <mxGeometry y="178" width="140" height="20" as="geometry" />
        </mxCell>
        <mxCell id="uGZjI_AvlOsYNC_hHNxF-16" value="&amp;lt;&amp;lt;keyword&amp;gt;&amp;gt;&lt;br&gt;&lt;b&gt;UserInterface&lt;/b&gt;&lt;br&gt;{abstract}" style="swimlane;fontStyle=0;align=center;verticalAlign=top;childLayout=stackLayout;horizontal=1;startSize=55;horizontalStack=0;resizeParent=1;resizeParentMax=0;resizeLast=0;collapsible=0;marginBottom=0;html=1;" parent="WIyWlLk6GJQsqaUBKTNV-1" vertex="1">
          <mxGeometry x="1410" y="180" width="160" height="260" as="geometry" />
        </mxCell>
        <mxCell id="uGZjI_AvlOsYNC_hHNxF-17" value="attributes" style="text;html=1;strokeColor=none;fillColor=none;align=center;verticalAlign=middle;spacingLeft=4;spacingRight=4;overflow=hidden;rotatable=0;points=[[0,0.5],[1,0.5]];portConstraint=eastwest;" parent="uGZjI_AvlOsYNC_hHNxF-16" vertex="1">
          <mxGeometry y="55" width="160" height="20" as="geometry" />
        </mxCell>
        <mxCell id="uGZjI_AvlOsYNC_hHNxF-18" value="attribute1" style="text;html=1;strokeColor=none;fillColor=none;align=left;verticalAlign=middle;spacingLeft=4;spacingRight=4;overflow=hidden;rotatable=0;points=[[0,0.5],[1,0.5]];portConstraint=eastwest;" parent="uGZjI_AvlOsYNC_hHNxF-16" vertex="1">
          <mxGeometry y="75" width="160" height="20" as="geometry" />
        </mxCell>
        <mxCell id="uGZjI_AvlOsYNC_hHNxF-21" value="" style="line;strokeWidth=1;fillColor=none;align=left;verticalAlign=middle;spacingTop=-1;spacingLeft=3;spacingRight=3;rotatable=0;labelPosition=right;points=[];portConstraint=eastwest;" parent="uGZjI_AvlOsYNC_hHNxF-16" vertex="1">
          <mxGeometry y="95" width="160" height="8" as="geometry" />
        </mxCell>
        <mxCell id="uGZjI_AvlOsYNC_hHNxF-22" value="operations" style="text;html=1;strokeColor=none;fillColor=none;align=center;verticalAlign=middle;spacingLeft=4;spacingRight=4;overflow=hidden;rotatable=0;points=[[0,0.5],[1,0.5]];portConstraint=eastwest;" parent="uGZjI_AvlOsYNC_hHNxF-16" vertex="1">
          <mxGeometry y="103" width="160" height="20" as="geometry" />
        </mxCell>
        <mxCell id="uGZjI_AvlOsYNC_hHNxF-23" value="&lt;div&gt;drawTemplate&lt;/div&gt;&lt;div&gt;drawVisibleUnits&lt;/div&gt;&lt;div&gt;drawInvisibleUnits&lt;/div&gt;&lt;div&gt;drawHand&lt;/div&gt;&lt;div&gt;drawSelectedInfo&lt;/div&gt;&lt;div&gt;highlightTile_Selected&lt;/div&gt;&lt;div&gt;highlightActionRange()&lt;br&gt;&lt;/div&gt;" style="text;html=1;strokeColor=none;fillColor=none;align=left;verticalAlign=middle;spacingLeft=4;spacingRight=4;overflow=hidden;rotatable=0;points=[[0,0.5],[1,0.5]];portConstraint=eastwest;" parent="uGZjI_AvlOsYNC_hHNxF-16" vertex="1">
          <mxGeometry y="123" width="160" height="137" as="geometry" />
        </mxCell>
        <mxCell id="uRghumSjXhdHqgUfUTX3-0" value="&amp;lt;&amp;lt;keyword&amp;gt;&amp;gt;&lt;br&gt;&lt;b&gt;Map&lt;/b&gt;&lt;br&gt;{abstract}" style="swimlane;fontStyle=0;align=center;verticalAlign=top;childLayout=stackLayout;horizontal=1;startSize=55;horizontalStack=0;resizeParent=1;resizeParentMax=0;resizeLast=0;collapsible=0;marginBottom=0;html=1;" parent="WIyWlLk6GJQsqaUBKTNV-1" vertex="1">
          <mxGeometry x="1170" y="419" width="150" height="178" as="geometry" />
        </mxCell>
        <mxCell id="uRghumSjXhdHqgUfUTX3-1" value="attributes" style="text;html=1;strokeColor=none;fillColor=none;align=center;verticalAlign=middle;spacingLeft=4;spacingRight=4;overflow=hidden;rotatable=0;points=[[0,0.5],[1,0.5]];portConstraint=eastwest;" parent="uRghumSjXhdHqgUfUTX3-0" vertex="1">
          <mxGeometry y="55" width="150" height="20" as="geometry" />
        </mxCell>
        <mxCell id="uRghumSjXhdHqgUfUTX3-2" value="&lt;div&gt;xWidth: int = 45&lt;/div&gt;&lt;div&gt;yHeight: int = 15&lt;br&gt;&lt;/div&gt;&lt;div&gt;Tiles[xWidth][yHeight]: Tile&lt;/div&gt;" style="text;html=1;strokeColor=none;fillColor=none;align=left;verticalAlign=middle;spacingLeft=4;spacingRight=4;overflow=hidden;rotatable=0;points=[[0,0.5],[1,0.5]];portConstraint=eastwest;" parent="uRghumSjXhdHqgUfUTX3-0" vertex="1">
          <mxGeometry y="75" width="150" height="55" as="geometry" />
        </mxCell>
        <mxCell id="uRghumSjXhdHqgUfUTX3-5" value="" style="line;strokeWidth=1;fillColor=none;align=left;verticalAlign=middle;spacingTop=-1;spacingLeft=3;spacingRight=3;rotatable=0;labelPosition=right;points=[];portConstraint=eastwest;" parent="uRghumSjXhdHqgUfUTX3-0" vertex="1">
          <mxGeometry y="130" width="150" height="8" as="geometry" />
        </mxCell>
        <mxCell id="uRghumSjXhdHqgUfUTX3-6" value="operations" style="text;html=1;strokeColor=none;fillColor=none;align=center;verticalAlign=middle;spacingLeft=4;spacingRight=4;overflow=hidden;rotatable=0;points=[[0,0.5],[1,0.5]];portConstraint=eastwest;" parent="uRghumSjXhdHqgUfUTX3-0" vertex="1">
          <mxGeometry y="138" width="150" height="20" as="geometry" />
        </mxCell>
        <mxCell id="uRghumSjXhdHqgUfUTX3-7" value="operation1" style="text;html=1;strokeColor=none;fillColor=none;align=left;verticalAlign=middle;spacingLeft=4;spacingRight=4;overflow=hidden;rotatable=0;points=[[0,0.5],[1,0.5]];portConstraint=eastwest;" parent="uRghumSjXhdHqgUfUTX3-0" vertex="1">
          <mxGeometry y="158" width="150" height="20" as="geometry" />
        </mxCell>
        <mxCell id="uRghumSjXhdHqgUfUTX3-89" style="edgeStyle=orthogonalEdgeStyle;rounded=0;orthogonalLoop=1;jettySize=auto;html=1;entryX=0.5;entryY=0;entryDx=0;entryDy=0;" parent="WIyWlLk6GJQsqaUBKTNV-1" source="uRghumSjXhdHqgUfUTX3-8" target="uRghumSjXhdHqgUfUTX3-16" edge="1">
          <mxGeometry relative="1" as="geometry" />
        </mxCell>
        <mxCell id="uRghumSjXhdHqgUfUTX3-97" style="edgeStyle=orthogonalEdgeStyle;rounded=0;orthogonalLoop=1;jettySize=auto;html=1;entryX=1;entryY=0.5;entryDx=0;entryDy=0;" parent="WIyWlLk6GJQsqaUBKTNV-1" source="uRghumSjXhdHqgUfUTX3-8" target="uRghumSjXhdHqgUfUTX3-67" edge="1">
          <mxGeometry relative="1" as="geometry">
            <Array as="points">
              <mxPoint x="890" y="519" />
              <mxPoint x="890" y="733" />
            </Array>
          </mxGeometry>
        </mxCell>
        <mxCell id="uRghumSjXhdHqgUfUTX3-8" value="&amp;lt;&amp;lt;keyword&amp;gt;&amp;gt;&lt;br&gt;&lt;b&gt;Tile&lt;/b&gt;&lt;br&gt;{abstract}" style="swimlane;fontStyle=0;align=center;verticalAlign=top;childLayout=stackLayout;horizontal=1;startSize=55;horizontalStack=0;resizeParent=1;resizeParentMax=0;resizeLast=0;collapsible=0;marginBottom=0;html=1;" parent="WIyWlLk6GJQsqaUBKTNV-1" vertex="1">
          <mxGeometry x="940" y="419" width="140" height="188" as="geometry" />
        </mxCell>
        <mxCell id="uRghumSjXhdHqgUfUTX3-9" value="attributes" style="text;html=1;strokeColor=none;fillColor=none;align=center;verticalAlign=middle;spacingLeft=4;spacingRight=4;overflow=hidden;rotatable=0;points=[[0,0.5],[1,0.5]];portConstraint=eastwest;" parent="uRghumSjXhdHqgUfUTX3-8" vertex="1">
          <mxGeometry y="55" width="140" height="20" as="geometry" />
        </mxCell>
        <mxCell id="uRghumSjXhdHqgUfUTX3-10" value="&lt;div&gt;xPos: int&lt;/div&gt;&lt;div&gt;yPos: int&lt;br&gt;&lt;/div&gt;&lt;div&gt;triggers[0...*]: Trigger&lt;br&gt;&lt;/div&gt;unit: Unit = null" style="text;html=1;strokeColor=none;fillColor=none;align=left;verticalAlign=middle;spacingLeft=4;spacingRight=4;overflow=hidden;rotatable=0;points=[[0,0.5],[1,0.5]];portConstraint=eastwest;" parent="uRghumSjXhdHqgUfUTX3-8" vertex="1">
          <mxGeometry y="75" width="140" height="65" as="geometry" />
        </mxCell>
        <mxCell id="uRghumSjXhdHqgUfUTX3-13" value="" style="line;strokeWidth=1;fillColor=none;align=left;verticalAlign=middle;spacingTop=-1;spacingLeft=3;spacingRight=3;rotatable=0;labelPosition=right;points=[];portConstraint=eastwest;" parent="uRghumSjXhdHqgUfUTX3-8" vertex="1">
          <mxGeometry y="140" width="140" height="8" as="geometry" />
        </mxCell>
        <mxCell id="uRghumSjXhdHqgUfUTX3-14" value="operations" style="text;html=1;strokeColor=none;fillColor=none;align=center;verticalAlign=middle;spacingLeft=4;spacingRight=4;overflow=hidden;rotatable=0;points=[[0,0.5],[1,0.5]];portConstraint=eastwest;" parent="uRghumSjXhdHqgUfUTX3-8" vertex="1">
          <mxGeometry y="148" width="140" height="20" as="geometry" />
        </mxCell>
        <mxCell id="uRghumSjXhdHqgUfUTX3-15" value="operation1" style="text;html=1;strokeColor=none;fillColor=none;align=left;verticalAlign=middle;spacingLeft=4;spacingRight=4;overflow=hidden;rotatable=0;points=[[0,0.5],[1,0.5]];portConstraint=eastwest;" parent="uRghumSjXhdHqgUfUTX3-8" vertex="1">
          <mxGeometry y="168" width="140" height="20" as="geometry" />
        </mxCell>
        <mxCell id="uRghumSjXhdHqgUfUTX3-90" style="edgeStyle=orthogonalEdgeStyle;rounded=0;orthogonalLoop=1;jettySize=auto;html=1;entryX=0.5;entryY=0;entryDx=0;entryDy=0;" parent="WIyWlLk6GJQsqaUBKTNV-1" source="uRghumSjXhdHqgUfUTX3-16" target="uRghumSjXhdHqgUfUTX3-24" edge="1">
          <mxGeometry relative="1" as="geometry" />
        </mxCell>
        <mxCell id="uRghumSjXhdHqgUfUTX3-98" style="edgeStyle=orthogonalEdgeStyle;rounded=0;orthogonalLoop=1;jettySize=auto;html=1;entryX=1.012;entryY=0.075;entryDx=0;entryDy=0;entryPerimeter=0;" parent="WIyWlLk6GJQsqaUBKTNV-1" source="uRghumSjXhdHqgUfUTX3-16" target="uRghumSjXhdHqgUfUTX3-68" edge="1">
          <mxGeometry relative="1" as="geometry">
            <Array as="points">
              <mxPoint x="920" y="757" />
              <mxPoint x="920" y="744" />
            </Array>
          </mxGeometry>
        </mxCell>
        <mxCell id="uRghumSjXhdHqgUfUTX3-16" value="&amp;lt;&amp;lt;keyword&amp;gt;&amp;gt;&lt;br&gt;&lt;b&gt;Unit&lt;/b&gt;&lt;br&gt;{abstract}" style="swimlane;fontStyle=0;align=center;verticalAlign=top;childLayout=stackLayout;horizontal=1;startSize=55;horizontalStack=0;resizeParent=1;resizeParentMax=0;resizeLast=0;collapsible=0;marginBottom=0;html=1;" parent="WIyWlLk6GJQsqaUBKTNV-1" vertex="1">
          <mxGeometry x="940" y="655" width="140" height="203" as="geometry" />
        </mxCell>
        <mxCell id="uRghumSjXhdHqgUfUTX3-17" value="attributes" style="text;html=1;strokeColor=none;fillColor=none;align=center;verticalAlign=middle;spacingLeft=4;spacingRight=4;overflow=hidden;rotatable=0;points=[[0,0.5],[1,0.5]];portConstraint=eastwest;" parent="uRghumSjXhdHqgUfUTX3-16" vertex="1">
          <mxGeometry y="55" width="140" height="20" as="geometry" />
        </mxCell>
        <mxCell id="uRghumSjXhdHqgUfUTX3-18" value="&lt;div&gt;description: string&lt;br&gt;&lt;/div&gt;&lt;div&gt;actions[1..*]: Action&lt;br&gt;&lt;/div&gt;&lt;div&gt;triggers[0..*]: Trigger&lt;br&gt;&lt;/div&gt;" style="text;html=1;strokeColor=none;fillColor=none;align=left;verticalAlign=middle;spacingLeft=4;spacingRight=4;overflow=hidden;rotatable=0;points=[[0,0.5],[1,0.5]];portConstraint=eastwest;" parent="uRghumSjXhdHqgUfUTX3-16" vertex="1">
          <mxGeometry y="75" width="140" height="80" as="geometry" />
        </mxCell>
        <mxCell id="uRghumSjXhdHqgUfUTX3-21" value="" style="line;strokeWidth=1;fillColor=none;align=left;verticalAlign=middle;spacingTop=-1;spacingLeft=3;spacingRight=3;rotatable=0;labelPosition=right;points=[];portConstraint=eastwest;" parent="uRghumSjXhdHqgUfUTX3-16" vertex="1">
          <mxGeometry y="155" width="140" height="8" as="geometry" />
        </mxCell>
        <mxCell id="uRghumSjXhdHqgUfUTX3-22" value="operations" style="text;html=1;strokeColor=none;fillColor=none;align=center;verticalAlign=middle;spacingLeft=4;spacingRight=4;overflow=hidden;rotatable=0;points=[[0,0.5],[1,0.5]];portConstraint=eastwest;" parent="uRghumSjXhdHqgUfUTX3-16" vertex="1">
          <mxGeometry y="163" width="140" height="20" as="geometry" />
        </mxCell>
        <mxCell id="uRghumSjXhdHqgUfUTX3-23" value="operation1" style="text;html=1;strokeColor=none;fillColor=none;align=left;verticalAlign=middle;spacingLeft=4;spacingRight=4;overflow=hidden;rotatable=0;points=[[0,0.5],[1,0.5]];portConstraint=eastwest;" parent="uRghumSjXhdHqgUfUTX3-16" vertex="1">
          <mxGeometry y="183" width="140" height="20" as="geometry" />
        </mxCell>
        <mxCell id="uRghumSjXhdHqgUfUTX3-99" style="edgeStyle=orthogonalEdgeStyle;rounded=0;orthogonalLoop=1;jettySize=auto;html=1;entryX=1;entryY=0.5;entryDx=0;entryDy=0;" parent="WIyWlLk6GJQsqaUBKTNV-1" source="uRghumSjXhdHqgUfUTX3-24" target="uRghumSjXhdHqgUfUTX3-68" edge="1">
          <mxGeometry relative="1" as="geometry">
            <Array as="points">
              <mxPoint x="910" y="959" />
              <mxPoint x="910" y="753" />
            </Array>
          </mxGeometry>
        </mxCell>
        <mxCell id="uRghumSjXhdHqgUfUTX3-24" value="&amp;lt;&amp;lt;keyword&amp;gt;&amp;gt;&lt;br&gt;&lt;b&gt;Player&lt;/b&gt;&lt;br&gt;{abstract}" style="swimlane;fontStyle=0;align=center;verticalAlign=top;childLayout=stackLayout;horizontal=1;startSize=55;horizontalStack=0;resizeParent=1;resizeParentMax=0;resizeLast=0;collapsible=0;marginBottom=0;html=1;" parent="WIyWlLk6GJQsqaUBKTNV-1" vertex="1">
          <mxGeometry x="935" y="870" width="150" height="178" as="geometry" />
        </mxCell>
        <mxCell id="uRghumSjXhdHqgUfUTX3-25" value="attributes" style="text;html=1;strokeColor=none;fillColor=none;align=center;verticalAlign=middle;spacingLeft=4;spacingRight=4;overflow=hidden;rotatable=0;points=[[0,0.5],[1,0.5]];portConstraint=eastwest;" parent="uRghumSjXhdHqgUfUTX3-24" vertex="1">
          <mxGeometry y="55" width="150" height="20" as="geometry" />
        </mxCell>
        <mxCell id="uRghumSjXhdHqgUfUTX3-26" value="&lt;div&gt;actions[]: Action&lt;br&gt;&lt;/div&gt;&lt;div&gt;hand: Hand&lt;br&gt;&lt;/div&gt;&lt;div&gt;triggers[]: Trigger = empty&lt;br&gt;&lt;/div&gt;" style="text;html=1;strokeColor=none;fillColor=none;align=left;verticalAlign=middle;spacingLeft=4;spacingRight=4;overflow=hidden;rotatable=0;points=[[0,0.5],[1,0.5]];portConstraint=eastwest;" parent="uRghumSjXhdHqgUfUTX3-24" vertex="1">
          <mxGeometry y="75" width="150" height="55" as="geometry" />
        </mxCell>
        <mxCell id="uRghumSjXhdHqgUfUTX3-29" value="" style="line;strokeWidth=1;fillColor=none;align=left;verticalAlign=middle;spacingTop=-1;spacingLeft=3;spacingRight=3;rotatable=0;labelPosition=right;points=[];portConstraint=eastwest;" parent="uRghumSjXhdHqgUfUTX3-24" vertex="1">
          <mxGeometry y="130" width="150" height="8" as="geometry" />
        </mxCell>
        <mxCell id="uRghumSjXhdHqgUfUTX3-30" value="operations" style="text;html=1;strokeColor=none;fillColor=none;align=center;verticalAlign=middle;spacingLeft=4;spacingRight=4;overflow=hidden;rotatable=0;points=[[0,0.5],[1,0.5]];portConstraint=eastwest;" parent="uRghumSjXhdHqgUfUTX3-24" vertex="1">
          <mxGeometry y="138" width="150" height="20" as="geometry" />
        </mxCell>
        <mxCell id="uRghumSjXhdHqgUfUTX3-31" value="drawCard(): void" style="text;html=1;strokeColor=none;fillColor=none;align=left;verticalAlign=middle;spacingLeft=4;spacingRight=4;overflow=hidden;rotatable=0;points=[[0,0.5],[1,0.5]];portConstraint=eastwest;" parent="uRghumSjXhdHqgUfUTX3-24" vertex="1">
          <mxGeometry y="158" width="150" height="20" as="geometry" />
        </mxCell>
        <mxCell id="uRghumSjXhdHqgUfUTX3-32" value="&amp;lt;&amp;lt;keyword&amp;gt;&amp;gt;&lt;br&gt;&lt;b&gt;Hand&lt;/b&gt;&lt;br&gt;{abstract}" style="swimlane;fontStyle=0;align=center;verticalAlign=top;childLayout=stackLayout;horizontal=1;startSize=55;horizontalStack=0;resizeParent=1;resizeParentMax=0;resizeLast=0;collapsible=0;marginBottom=0;html=1;" parent="WIyWlLk6GJQsqaUBKTNV-1" vertex="1">
          <mxGeometry x="1150" y="880" width="140" height="158" as="geometry" />
        </mxCell>
        <mxCell id="uRghumSjXhdHqgUfUTX3-33" value="attributes" style="text;html=1;strokeColor=none;fillColor=none;align=center;verticalAlign=middle;spacingLeft=4;spacingRight=4;overflow=hidden;rotatable=0;points=[[0,0.5],[1,0.5]];portConstraint=eastwest;" parent="uRghumSjXhdHqgUfUTX3-32" vertex="1">
          <mxGeometry y="55" width="140" height="20" as="geometry" />
        </mxCell>
        <mxCell id="uRghumSjXhdHqgUfUTX3-34" value="&lt;div&gt;deck: Deck&lt;br&gt;&lt;/div&gt;&lt;div&gt;cards[7]: Card&lt;br&gt;&lt;/div&gt;" style="text;html=1;strokeColor=none;fillColor=none;align=left;verticalAlign=middle;spacingLeft=4;spacingRight=4;overflow=hidden;rotatable=0;points=[[0,0.5],[1,0.5]];portConstraint=eastwest;" parent="uRghumSjXhdHqgUfUTX3-32" vertex="1">
          <mxGeometry y="75" width="140" height="35" as="geometry" />
        </mxCell>
        <mxCell id="uRghumSjXhdHqgUfUTX3-37" value="" style="line;strokeWidth=1;fillColor=none;align=left;verticalAlign=middle;spacingTop=-1;spacingLeft=3;spacingRight=3;rotatable=0;labelPosition=right;points=[];portConstraint=eastwest;" parent="uRghumSjXhdHqgUfUTX3-32" vertex="1">
          <mxGeometry y="110" width="140" height="8" as="geometry" />
        </mxCell>
        <mxCell id="uRghumSjXhdHqgUfUTX3-38" value="operations" style="text;html=1;strokeColor=none;fillColor=none;align=center;verticalAlign=middle;spacingLeft=4;spacingRight=4;overflow=hidden;rotatable=0;points=[[0,0.5],[1,0.5]];portConstraint=eastwest;" parent="uRghumSjXhdHqgUfUTX3-32" vertex="1">
          <mxGeometry y="118" width="140" height="20" as="geometry" />
        </mxCell>
        <mxCell id="uRghumSjXhdHqgUfUTX3-39" value="drawCard(): void" style="text;html=1;strokeColor=none;fillColor=none;align=left;verticalAlign=middle;spacingLeft=4;spacingRight=4;overflow=hidden;rotatable=0;points=[[0,0.5],[1,0.5]];portConstraint=eastwest;" parent="uRghumSjXhdHqgUfUTX3-32" vertex="1">
          <mxGeometry y="138" width="140" height="20" as="geometry" />
        </mxCell>
        <mxCell id="uRghumSjXhdHqgUfUTX3-40" value="&amp;lt;&amp;lt;keyword&amp;gt;&amp;gt;&lt;br&gt;&lt;b&gt;Deck&lt;/b&gt;&lt;br&gt;{abstract}" style="swimlane;fontStyle=0;align=center;verticalAlign=top;childLayout=stackLayout;horizontal=1;startSize=55;horizontalStack=0;resizeParent=1;resizeParentMax=0;resizeLast=0;collapsible=0;marginBottom=0;html=1;" parent="WIyWlLk6GJQsqaUBKTNV-1" vertex="1">
          <mxGeometry x="1400" y="887.5" width="140" height="143" as="geometry" />
        </mxCell>
        <mxCell id="uRghumSjXhdHqgUfUTX3-41" value="attributes" style="text;html=1;strokeColor=none;fillColor=none;align=center;verticalAlign=middle;spacingLeft=4;spacingRight=4;overflow=hidden;rotatable=0;points=[[0,0.5],[1,0.5]];portConstraint=eastwest;" parent="uRghumSjXhdHqgUfUTX3-40" vertex="1">
          <mxGeometry y="55" width="140" height="20" as="geometry" />
        </mxCell>
        <mxCell id="uRghumSjXhdHqgUfUTX3-42" value="cards[]: Card" style="text;html=1;strokeColor=none;fillColor=none;align=left;verticalAlign=middle;spacingLeft=4;spacingRight=4;overflow=hidden;rotatable=0;points=[[0,0.5],[1,0.5]];portConstraint=eastwest;" parent="uRghumSjXhdHqgUfUTX3-40" vertex="1">
          <mxGeometry y="75" width="140" height="20" as="geometry" />
        </mxCell>
        <mxCell id="uRghumSjXhdHqgUfUTX3-45" value="" style="line;strokeWidth=1;fillColor=none;align=left;verticalAlign=middle;spacingTop=-1;spacingLeft=3;spacingRight=3;rotatable=0;labelPosition=right;points=[];portConstraint=eastwest;" parent="uRghumSjXhdHqgUfUTX3-40" vertex="1">
          <mxGeometry y="95" width="140" height="8" as="geometry" />
        </mxCell>
        <mxCell id="uRghumSjXhdHqgUfUTX3-46" value="operations" style="text;html=1;strokeColor=none;fillColor=none;align=center;verticalAlign=middle;spacingLeft=4;spacingRight=4;overflow=hidden;rotatable=0;points=[[0,0.5],[1,0.5]];portConstraint=eastwest;" parent="uRghumSjXhdHqgUfUTX3-40" vertex="1">
          <mxGeometry y="103" width="140" height="20" as="geometry" />
        </mxCell>
        <mxCell id="uRghumSjXhdHqgUfUTX3-47" value="drawCard(): Card" style="text;html=1;strokeColor=none;fillColor=none;align=left;verticalAlign=middle;spacingLeft=4;spacingRight=4;overflow=hidden;rotatable=0;points=[[0,0.5],[1,0.5]];portConstraint=eastwest;" parent="uRghumSjXhdHqgUfUTX3-40" vertex="1">
          <mxGeometry y="123" width="140" height="20" as="geometry" />
        </mxCell>
        <mxCell id="uRghumSjXhdHqgUfUTX3-48" value="&amp;lt;&amp;lt;keyword&amp;gt;&amp;gt;&lt;br&gt;&lt;b&gt;Card&lt;/b&gt;&lt;br&gt;{abstract}" style="swimlane;fontStyle=0;align=center;verticalAlign=top;childLayout=stackLayout;horizontal=1;startSize=55;horizontalStack=0;resizeParent=1;resizeParentMax=0;resizeLast=0;collapsible=0;marginBottom=0;html=1;" parent="WIyWlLk6GJQsqaUBKTNV-1" vertex="1">
          <mxGeometry x="1400" y="745" width="140" height="125" as="geometry" />
        </mxCell>
        <mxCell id="uRghumSjXhdHqgUfUTX3-49" value="attributes" style="text;html=1;strokeColor=none;fillColor=none;align=center;verticalAlign=middle;spacingLeft=4;spacingRight=4;overflow=hidden;rotatable=0;points=[[0,0.5],[1,0.5]];portConstraint=eastwest;" parent="uRghumSjXhdHqgUfUTX3-48" vertex="1">
          <mxGeometry y="55" width="140" height="20" as="geometry" />
        </mxCell>
        <mxCell id="uRghumSjXhdHqgUfUTX3-50" value="&lt;div&gt;name: string&lt;br&gt;&lt;/div&gt;&lt;div&gt;description: string&lt;br&gt;&lt;/div&gt;&lt;div&gt;actions[1..*]: Action&lt;br&gt;&lt;/div&gt;" style="text;html=1;strokeColor=none;fillColor=none;align=left;verticalAlign=middle;spacingLeft=4;spacingRight=4;overflow=hidden;rotatable=0;points=[[0,0.5],[1,0.5]];portConstraint=eastwest;" parent="uRghumSjXhdHqgUfUTX3-48" vertex="1">
          <mxGeometry y="75" width="140" height="50" as="geometry" />
        </mxCell>
        <mxCell id="uRghumSjXhdHqgUfUTX3-56" value="&amp;lt;&amp;lt;keyword&amp;gt;&amp;gt;&lt;br&gt;&lt;b&gt;Action&lt;/b&gt;&lt;br&gt;{abstract}" style="swimlane;fontStyle=0;align=center;verticalAlign=top;childLayout=stackLayout;horizontal=1;startSize=55;horizontalStack=0;resizeParent=1;resizeParentMax=0;resizeLast=0;collapsible=0;marginBottom=0;html=1;" parent="WIyWlLk6GJQsqaUBKTNV-1" vertex="1">
          <mxGeometry x="1496" y="510" width="140" height="178" as="geometry" />
        </mxCell>
        <mxCell id="uRghumSjXhdHqgUfUTX3-57" value="attributes" style="text;html=1;strokeColor=none;fillColor=none;align=center;verticalAlign=middle;spacingLeft=4;spacingRight=4;overflow=hidden;rotatable=0;points=[[0,0.5],[1,0.5]];portConstraint=eastwest;" parent="uRghumSjXhdHqgUfUTX3-56" vertex="1">
          <mxGeometry y="55" width="140" height="20" as="geometry" />
        </mxCell>
        <mxCell id="uRghumSjXhdHqgUfUTX3-58" value="&lt;div&gt;name: string&lt;br&gt;&lt;/div&gt;&lt;div&gt;range: int&lt;br&gt;&lt;/div&gt;&lt;div&gt;flags[]: string&lt;br&gt;&lt;/div&gt;" style="text;html=1;strokeColor=none;fillColor=none;align=left;verticalAlign=middle;spacingLeft=4;spacingRight=4;overflow=hidden;rotatable=0;points=[[0,0.5],[1,0.5]];portConstraint=eastwest;" parent="uRghumSjXhdHqgUfUTX3-56" vertex="1">
          <mxGeometry y="75" width="140" height="55" as="geometry" />
        </mxCell>
        <mxCell id="uRghumSjXhdHqgUfUTX3-61" value="" style="line;strokeWidth=1;fillColor=none;align=left;verticalAlign=middle;spacingTop=-1;spacingLeft=3;spacingRight=3;rotatable=0;labelPosition=right;points=[];portConstraint=eastwest;" parent="uRghumSjXhdHqgUfUTX3-56" vertex="1">
          <mxGeometry y="130" width="140" height="8" as="geometry" />
        </mxCell>
        <mxCell id="uRghumSjXhdHqgUfUTX3-62" value="operations" style="text;html=1;strokeColor=none;fillColor=none;align=center;verticalAlign=middle;spacingLeft=4;spacingRight=4;overflow=hidden;rotatable=0;points=[[0,0.5],[1,0.5]];portConstraint=eastwest;" parent="uRghumSjXhdHqgUfUTX3-56" vertex="1">
          <mxGeometry y="138" width="140" height="20" as="geometry" />
        </mxCell>
        <mxCell id="uRghumSjXhdHqgUfUTX3-63" value="function()" style="text;html=1;strokeColor=none;fillColor=none;align=left;verticalAlign=middle;spacingLeft=4;spacingRight=4;overflow=hidden;rotatable=0;points=[[0,0.5],[1,0.5]];portConstraint=eastwest;" parent="uRghumSjXhdHqgUfUTX3-56" vertex="1">
          <mxGeometry y="158" width="140" height="20" as="geometry" />
        </mxCell>
        <mxCell id="uRghumSjXhdHqgUfUTX3-66" value="&amp;lt;&amp;lt;keyword&amp;gt;&amp;gt;&lt;br&gt;&lt;b&gt;Trigger&lt;/b&gt;&lt;br&gt;{abstract}" style="swimlane;fontStyle=0;align=center;verticalAlign=top;childLayout=stackLayout;horizontal=1;startSize=55;horizontalStack=0;resizeParent=1;resizeParentMax=0;resizeLast=0;collapsible=0;marginBottom=0;html=1;" parent="WIyWlLk6GJQsqaUBKTNV-1" vertex="1">
          <mxGeometry x="670" y="667.5" width="140" height="143" as="geometry" />
        </mxCell>
        <mxCell id="uRghumSjXhdHqgUfUTX3-67" value="attributes" style="text;html=1;strokeColor=none;fillColor=none;align=center;verticalAlign=middle;spacingLeft=4;spacingRight=4;overflow=hidden;rotatable=0;points=[[0,0.5],[1,0.5]];portConstraint=eastwest;" parent="uRghumSjXhdHqgUfUTX3-66" vertex="1">
          <mxGeometry y="55" width="140" height="20" as="geometry" />
        </mxCell>
        <mxCell id="uRghumSjXhdHqgUfUTX3-68" value="flag: string" style="text;html=1;strokeColor=none;fillColor=none;align=left;verticalAlign=middle;spacingLeft=4;spacingRight=4;overflow=hidden;rotatable=0;points=[[0,0.5],[1,0.5]];portConstraint=eastwest;" parent="uRghumSjXhdHqgUfUTX3-66" vertex="1">
          <mxGeometry y="75" width="140" height="20" as="geometry" />
        </mxCell>
        <mxCell id="uRghumSjXhdHqgUfUTX3-71" value="" style="line;strokeWidth=1;fillColor=none;align=left;verticalAlign=middle;spacingTop=-1;spacingLeft=3;spacingRight=3;rotatable=0;labelPosition=right;points=[];portConstraint=eastwest;" parent="uRghumSjXhdHqgUfUTX3-66" vertex="1">
          <mxGeometry y="95" width="140" height="8" as="geometry" />
        </mxCell>
        <mxCell id="uRghumSjXhdHqgUfUTX3-72" value="operations" style="text;html=1;strokeColor=none;fillColor=none;align=center;verticalAlign=middle;spacingLeft=4;spacingRight=4;overflow=hidden;rotatable=0;points=[[0,0.5],[1,0.5]];portConstraint=eastwest;" parent="uRghumSjXhdHqgUfUTX3-66" vertex="1">
          <mxGeometry y="103" width="140" height="20" as="geometry" />
        </mxCell>
        <mxCell id="uRghumSjXhdHqgUfUTX3-73" value="function()" style="text;html=1;strokeColor=none;fillColor=none;align=left;verticalAlign=middle;spacingLeft=4;spacingRight=4;overflow=hidden;rotatable=0;points=[[0,0.5],[1,0.5]];portConstraint=eastwest;" parent="uRghumSjXhdHqgUfUTX3-66" vertex="1">
          <mxGeometry y="123" width="140" height="20" as="geometry" />
        </mxCell>
        <mxCell id="uRghumSjXhdHqgUfUTX3-85" style="edgeStyle=orthogonalEdgeStyle;rounded=0;orthogonalLoop=1;jettySize=auto;html=1;entryX=-0.008;entryY=0.067;entryDx=0;entryDy=0;entryPerimeter=0;" parent="WIyWlLk6GJQsqaUBKTNV-1" source="uRghumSjXhdHqgUfUTX3-74" target="uGZjI_AvlOsYNC_hHNxF-23" edge="1">
          <mxGeometry relative="1" as="geometry" />
        </mxCell>
        <mxCell id="BNsZcye2S6btWI8v-D2C-27" style="edgeStyle=orthogonalEdgeStyle;rounded=0;orthogonalLoop=1;jettySize=auto;html=1;entryX=0.5;entryY=0;entryDx=0;entryDy=0;fontSize=11;" parent="WIyWlLk6GJQsqaUBKTNV-1" source="uRghumSjXhdHqgUfUTX3-74" target="uRghumSjXhdHqgUfUTX3-0" edge="1">
          <mxGeometry relative="1" as="geometry" />
        </mxCell>
        <mxCell id="uRghumSjXhdHqgUfUTX3-74" value="&amp;lt;&amp;lt;keyword&amp;gt;&amp;gt;&lt;br&gt;&lt;b&gt;Executive&lt;/b&gt;&lt;br&gt;{abstract}" style="swimlane;fontStyle=0;align=center;verticalAlign=top;childLayout=stackLayout;horizontal=1;startSize=55;horizontalStack=0;resizeParent=1;resizeParentMax=0;resizeLast=0;collapsible=0;marginBottom=0;html=1;" parent="WIyWlLk6GJQsqaUBKTNV-1" vertex="1">
          <mxGeometry x="1170" y="220" width="140" height="148" as="geometry" />
        </mxCell>
        <mxCell id="uRghumSjXhdHqgUfUTX3-75" value="attributes" style="text;html=1;strokeColor=none;fillColor=none;align=center;verticalAlign=middle;spacingLeft=4;spacingRight=4;overflow=hidden;rotatable=0;points=[[0,0.5],[1,0.5]];portConstraint=eastwest;" parent="uRghumSjXhdHqgUfUTX3-74" vertex="1">
          <mxGeometry y="55" width="140" height="20" as="geometry" />
        </mxCell>
        <mxCell id="uRghumSjXhdHqgUfUTX3-76" value="map" style="text;html=1;strokeColor=none;fillColor=none;align=left;verticalAlign=middle;spacingLeft=4;spacingRight=4;overflow=hidden;rotatable=0;points=[[0,0.5],[1,0.5]];portConstraint=eastwest;" parent="uRghumSjXhdHqgUfUTX3-74" vertex="1">
          <mxGeometry y="75" width="140" height="25" as="geometry" />
        </mxCell>
        <mxCell id="uRghumSjXhdHqgUfUTX3-79" value="" style="line;strokeWidth=1;fillColor=none;align=left;verticalAlign=middle;spacingTop=-1;spacingLeft=3;spacingRight=3;rotatable=0;labelPosition=right;points=[];portConstraint=eastwest;" parent="uRghumSjXhdHqgUfUTX3-74" vertex="1">
          <mxGeometry y="100" width="140" height="8" as="geometry" />
        </mxCell>
        <mxCell id="uRghumSjXhdHqgUfUTX3-80" value="operations" style="text;html=1;strokeColor=none;fillColor=none;align=center;verticalAlign=middle;spacingLeft=4;spacingRight=4;overflow=hidden;rotatable=0;points=[[0,0.5],[1,0.5]];portConstraint=eastwest;" parent="uRghumSjXhdHqgUfUTX3-74" vertex="1">
          <mxGeometry y="108" width="140" height="20" as="geometry" />
        </mxCell>
        <mxCell id="uRghumSjXhdHqgUfUTX3-81" value="operation1" style="text;html=1;strokeColor=none;fillColor=none;align=left;verticalAlign=middle;spacingLeft=4;spacingRight=4;overflow=hidden;rotatable=0;points=[[0,0.5],[1,0.5]];portConstraint=eastwest;" parent="uRghumSjXhdHqgUfUTX3-74" vertex="1">
          <mxGeometry y="128" width="140" height="20" as="geometry" />
        </mxCell>
        <mxCell id="uRghumSjXhdHqgUfUTX3-83" style="edgeStyle=orthogonalEdgeStyle;rounded=0;orthogonalLoop=1;jettySize=auto;html=1;exitX=1;exitY=0.5;exitDx=0;exitDy=0;entryX=0;entryY=0.5;entryDx=0;entryDy=0;" parent="WIyWlLk6GJQsqaUBKTNV-1" source="uGZjI_AvlOsYNC_hHNxF-10" target="uGZjI_AvlOsYNC_hHNxF-7" edge="1">
          <mxGeometry relative="1" as="geometry" />
        </mxCell>
        <mxCell id="uRghumSjXhdHqgUfUTX3-88" style="edgeStyle=orthogonalEdgeStyle;rounded=0;orthogonalLoop=1;jettySize=auto;html=1;entryX=1;entryY=0.5;entryDx=0;entryDy=0;" parent="WIyWlLk6GJQsqaUBKTNV-1" source="uRghumSjXhdHqgUfUTX3-2" target="uRghumSjXhdHqgUfUTX3-10" edge="1">
          <mxGeometry relative="1" as="geometry" />
        </mxCell>
        <mxCell id="BNsZcye2S6btWI8v-D2C-2" value="" style="group" parent="WIyWlLk6GJQsqaUBKTNV-1" vertex="1" connectable="0">
          <mxGeometry x="1380" y="949" width="20" height="20" as="geometry" />
        </mxCell>
        <mxCell id="BNsZcye2S6btWI8v-D2C-0" value="1" style="endArrow=open;html=1;endSize=12;startArrow=diamondThin;startSize=14;startFill=0;edgeStyle=orthogonalEdgeStyle;align=left;verticalAlign=bottom;rounded=0;exitX=1;exitY=0.5;exitDx=0;exitDy=0;entryX=0;entryY=0.5;entryDx=0;entryDy=0;" parent="BNsZcye2S6btWI8v-D2C-2" source="uRghumSjXhdHqgUfUTX3-34" target="uRghumSjXhdHqgUfUTX3-42" edge="1">
          <mxGeometry x="-1" y="3" relative="1" as="geometry">
            <mxPoint x="-94" y="116" as="sourcePoint" />
            <mxPoint x="96" y="126" as="targetPoint" />
          </mxGeometry>
        </mxCell>
        <mxCell id="BNsZcye2S6btWI8v-D2C-1" value="1" style="text;html=1;align=center;verticalAlign=middle;resizable=0;points=[];autosize=1;strokeColor=none;fillColor=none;" parent="BNsZcye2S6btWI8v-D2C-2" vertex="1">
          <mxGeometry width="20" height="20" as="geometry" />
        </mxCell>
        <mxCell id="BNsZcye2S6btWI8v-D2C-4" value="1" style="endArrow=open;html=1;endSize=12;startArrow=diamondThin;startSize=14;startFill=0;edgeStyle=orthogonalEdgeStyle;align=left;verticalAlign=bottom;rounded=0;fontSize=11;exitX=1;exitY=0.5;exitDx=0;exitDy=0;entryX=0;entryY=0.5;entryDx=0;entryDy=0;" parent="WIyWlLk6GJQsqaUBKTNV-1" source="uRghumSjXhdHqgUfUTX3-33" target="uRghumSjXhdHqgUfUTX3-49" edge="1">
          <mxGeometry x="-1" y="3" relative="1" as="geometry">
            <mxPoint x="1330" y="920" as="sourcePoint" />
            <mxPoint x="1490" y="920" as="targetPoint" />
          </mxGeometry>
        </mxCell>
        <mxCell id="BNsZcye2S6btWI8v-D2C-5" value="7" style="text;html=1;align=center;verticalAlign=middle;resizable=0;points=[];autosize=1;strokeColor=none;fillColor=none;fontSize=11;" parent="WIyWlLk6GJQsqaUBKTNV-1" vertex="1">
          <mxGeometry x="1380" y="815" width="20" height="20" as="geometry" />
        </mxCell>
        <mxCell id="BNsZcye2S6btWI8v-D2C-8" value="1" style="endArrow=open;html=1;endSize=12;startArrow=diamondThin;startSize=14;startFill=0;edgeStyle=orthogonalEdgeStyle;align=left;verticalAlign=bottom;rounded=0;fontSize=11;exitX=1;exitY=0.5;exitDx=0;exitDy=0;entryX=1;entryY=0.5;entryDx=0;entryDy=0;" parent="WIyWlLk6GJQsqaUBKTNV-1" source="uRghumSjXhdHqgUfUTX3-42" target="uRghumSjXhdHqgUfUTX3-49" edge="1">
          <mxGeometry x="-1" y="3" relative="1" as="geometry">
            <mxPoint x="1350" y="920" as="sourcePoint" />
            <mxPoint x="1510" y="920" as="targetPoint" />
            <Array as="points">
              <mxPoint x="1580" y="972" />
              <mxPoint x="1580" y="810" />
            </Array>
          </mxGeometry>
        </mxCell>
        <mxCell id="BNsZcye2S6btWI8v-D2C-9" value="0..*" style="text;html=1;align=center;verticalAlign=middle;resizable=0;points=[];autosize=1;strokeColor=none;fillColor=none;fontSize=11;" parent="WIyWlLk6GJQsqaUBKTNV-1" vertex="1">
          <mxGeometry x="1540" y="781" width="30" height="20" as="geometry" />
        </mxCell>
        <mxCell id="BNsZcye2S6btWI8v-D2C-10" value="1" style="endArrow=open;html=1;endSize=12;startArrow=diamondThin;startSize=14;startFill=0;edgeStyle=orthogonalEdgeStyle;align=left;verticalAlign=bottom;rounded=0;fontSize=11;exitX=1;exitY=0.5;exitDx=0;exitDy=0;entryX=0;entryY=0.5;entryDx=0;entryDy=0;" parent="WIyWlLk6GJQsqaUBKTNV-1" source="uRghumSjXhdHqgUfUTX3-26" target="uRghumSjXhdHqgUfUTX3-34" edge="1">
          <mxGeometry x="-1" y="3" relative="1" as="geometry">
            <mxPoint x="1110" y="980" as="sourcePoint" />
            <mxPoint x="1270" y="980" as="targetPoint" />
          </mxGeometry>
        </mxCell>
        <mxCell id="BNsZcye2S6btWI8v-D2C-12" value="1" style="text;html=1;align=center;verticalAlign=middle;resizable=0;points=[];autosize=1;strokeColor=none;fillColor=none;fontSize=11;" parent="WIyWlLk6GJQsqaUBKTNV-1" vertex="1">
          <mxGeometry x="1130" y="949" width="20" height="20" as="geometry" />
        </mxCell>
        <mxCell id="BNsZcye2S6btWI8v-D2C-13" value="&amp;lt;&amp;lt;keyword&amp;gt;&amp;gt;&lt;br&gt;&lt;b&gt;Trigger&lt;/b&gt;&lt;br&gt;{abstract}" style="swimlane;fontStyle=0;align=center;verticalAlign=top;childLayout=stackLayout;horizontal=1;startSize=55;horizontalStack=0;resizeParent=1;resizeParentMax=0;resizeLast=0;collapsible=0;marginBottom=0;html=1;" parent="WIyWlLk6GJQsqaUBKTNV-1" vertex="1">
          <mxGeometry x="310" y="419" width="140" height="158" as="geometry" />
        </mxCell>
        <mxCell id="BNsZcye2S6btWI8v-D2C-14" value="attributes" style="text;html=1;strokeColor=none;fillColor=none;align=center;verticalAlign=middle;spacingLeft=4;spacingRight=4;overflow=hidden;rotatable=0;points=[[0,0.5],[1,0.5]];portConstraint=eastwest;" parent="BNsZcye2S6btWI8v-D2C-13" vertex="1">
          <mxGeometry y="55" width="140" height="20" as="geometry" />
        </mxCell>
        <mxCell id="BNsZcye2S6btWI8v-D2C-15" value="&lt;div&gt;tilesWithTrigger[]: Tile&lt;/div&gt;&lt;div&gt;unitsWithTrigger[]: Unit&lt;/div&gt;&lt;div&gt;&lt;br&gt;&lt;/div&gt;" style="text;html=1;strokeColor=none;fillColor=none;align=left;verticalAlign=middle;spacingLeft=4;spacingRight=4;overflow=hidden;rotatable=0;points=[[0,0.5],[1,0.5]];portConstraint=eastwest;" parent="BNsZcye2S6btWI8v-D2C-13" vertex="1">
          <mxGeometry y="75" width="140" height="35" as="geometry" />
        </mxCell>
        <mxCell id="BNsZcye2S6btWI8v-D2C-16" value="" style="line;strokeWidth=1;fillColor=none;align=left;verticalAlign=middle;spacingTop=-1;spacingLeft=3;spacingRight=3;rotatable=0;labelPosition=right;points=[];portConstraint=eastwest;" parent="BNsZcye2S6btWI8v-D2C-13" vertex="1">
          <mxGeometry y="110" width="140" height="8" as="geometry" />
        </mxCell>
        <mxCell id="BNsZcye2S6btWI8v-D2C-17" value="operations" style="text;html=1;strokeColor=none;fillColor=none;align=center;verticalAlign=middle;spacingLeft=4;spacingRight=4;overflow=hidden;rotatable=0;points=[[0,0.5],[1,0.5]];portConstraint=eastwest;" parent="BNsZcye2S6btWI8v-D2C-13" vertex="1">
          <mxGeometry y="118" width="140" height="20" as="geometry" />
        </mxCell>
        <mxCell id="BNsZcye2S6btWI8v-D2C-18" value="function" style="text;html=1;strokeColor=none;fillColor=none;align=left;verticalAlign=middle;spacingLeft=4;spacingRight=4;overflow=hidden;rotatable=0;points=[[0,0.5],[1,0.5]];portConstraint=eastwest;" parent="BNsZcye2S6btWI8v-D2C-13" vertex="1">
          <mxGeometry y="138" width="140" height="20" as="geometry" />
        </mxCell>
        <mxCell id="BNsZcye2S6btWI8v-D2C-21" style="edgeStyle=orthogonalEdgeStyle;rounded=0;orthogonalLoop=1;jettySize=auto;html=1;entryX=1;entryY=0.5;entryDx=0;entryDy=0;fontSize=11;" parent="WIyWlLk6GJQsqaUBKTNV-1" source="uRghumSjXhdHqgUfUTX3-76" target="uGZjI_AvlOsYNC_hHNxF-14" edge="1">
          <mxGeometry relative="1" as="geometry" />
        </mxCell>
        <mxCell id="BNsZcye2S6btWI8v-D2C-22" value="updates" style="text;html=1;align=center;verticalAlign=middle;resizable=0;points=[];autosize=1;strokeColor=none;fillColor=none;fontSize=11;" parent="WIyWlLk6GJQsqaUBKTNV-1" vertex="1">
          <mxGeometry x="1070" y="310" width="60" height="20" as="geometry" />
        </mxCell>
        <mxCell id="BNsZcye2S6btWI8v-D2C-24" value="1" style="text;html=1;align=center;verticalAlign=middle;resizable=0;points=[];autosize=1;strokeColor=none;fillColor=none;fontSize=11;" parent="WIyWlLk6GJQsqaUBKTNV-1" vertex="1">
          <mxGeometry x="1140" y="284" width="20" height="20" as="geometry" />
        </mxCell>
        <mxCell id="BNsZcye2S6btWI8v-D2C-25" value="1" style="text;html=1;align=center;verticalAlign=middle;resizable=0;points=[];autosize=1;strokeColor=none;fillColor=none;fontSize=11;" parent="WIyWlLk6GJQsqaUBKTNV-1" vertex="1">
          <mxGeometry x="1038" y="197" width="20" height="20" as="geometry" />
        </mxCell>
        <mxCell id="BNsZcye2S6btWI8v-D2C-28" value="1" style="endArrow=open;html=1;endSize=12;startArrow=diamondThin;startSize=14;startFill=0;edgeStyle=orthogonalEdgeStyle;align=left;verticalAlign=bottom;rounded=0;fontSize=11;exitX=0;exitY=0.25;exitDx=0;exitDy=0;entryX=0;entryY=0.5;entryDx=0;entryDy=0;" parent="WIyWlLk6GJQsqaUBKTNV-1" source="uRghumSjXhdHqgUfUTX3-48" target="uRghumSjXhdHqgUfUTX3-63" edge="1">
          <mxGeometry x="-0.8642" y="-6" relative="1" as="geometry">
            <mxPoint x="1320" y="720" as="sourcePoint" />
            <mxPoint x="1460" y="678" as="targetPoint" />
            <Array as="points">
              <mxPoint x="1350" y="776" />
              <mxPoint x="1350" y="678" />
            </Array>
            <mxPoint as="offset" />
          </mxGeometry>
        </mxCell>
        <mxCell id="BNsZcye2S6btWI8v-D2C-30" value="1..*" style="text;html=1;align=center;verticalAlign=middle;resizable=0;points=[];autosize=1;strokeColor=none;fillColor=none;fontSize=11;" parent="WIyWlLk6GJQsqaUBKTNV-1" vertex="1">
          <mxGeometry x="1466" y="655" width="30" height="20" as="geometry" />
        </mxCell>
        <mxCell id="BNsZcye2S6btWI8v-D2C-31" value="1" style="endArrow=open;html=1;endSize=12;startArrow=diamondThin;startSize=14;startFill=0;edgeStyle=orthogonalEdgeStyle;align=left;verticalAlign=bottom;rounded=0;fontSize=11;exitX=1;exitY=0.5;exitDx=0;exitDy=0;entryX=0;entryY=0.5;entryDx=0;entryDy=0;" parent="WIyWlLk6GJQsqaUBKTNV-1" source="uRghumSjXhdHqgUfUTX3-17" target="uRghumSjXhdHqgUfUTX3-57" edge="1">
          <mxGeometry x="-1" y="3" relative="1" as="geometry">
            <mxPoint x="1300" y="750" as="sourcePoint" />
            <mxPoint x="1460" y="750" as="targetPoint" />
            <Array as="points">
              <mxPoint x="1200" y="720" />
              <mxPoint x="1200" y="630" />
              <mxPoint x="1350" y="630" />
              <mxPoint x="1350" y="575" />
            </Array>
          </mxGeometry>
        </mxCell>
        <mxCell id="BNsZcye2S6btWI8v-D2C-32" value="1..*" style="text;html=1;align=center;verticalAlign=middle;resizable=0;points=[];autosize=1;strokeColor=none;fillColor=none;fontSize=11;" parent="WIyWlLk6GJQsqaUBKTNV-1" vertex="1">
          <mxGeometry x="1465" y="546" width="30" height="20" as="geometry" />
        </mxCell>
      </root>
    </mxGraphModel>
  </diagram>
</mxfile>
